<svg xmlns="http://www.w3.org/2000/svg" viewBox="0 0 100 100" fill="none">
  <defs>
    <linearGradient id="netpulseGrad" x1="0%" y1="0%" x2="100%" y2="100%">
      <stop offset="0%" stop-color="#2563EB" />
      <stop offset="100%" stop-color="#4F46E5" />
    </linearGradient>
  </defs>
  <rect width="100" height="100" rx="22" fill="#0F172A" />
  <!-- Infinity Pulse Wave Track -->
  <path d="M 12,50 L 22,50 Q 25,30 28,50 Q 32,70 36,50 C 42,32 48,32 50,50 C 52,68 58,68 64,50 C 68,32 74,32 78,50 Q 82,70 85,50 L 88,50" 
        stroke="url(#netpulseGrad)" 
        stroke-width="5" 
        stroke-linecap="round" 
        stroke-linejoin="round" />
  <!-- Infinity Center Loop -->
  <path d="M 50,50 C 44,64 34,64 34,50 C 34,36 44,36 50,50 C 56,64 66,64 66,50 C 66,36 56,36 50,50 Z" 
        stroke="#3B82F6" 
        stroke-width="5.5" 
        stroke-linecap="round" 
        stroke-linejoin="round" />
</svg>
